<svg xmlns="http://www.w3.org/2000/svg" viewBox="0 0 16 16" shape-rendering="crispEdges">
  <rect x="7" y="1" width="2" height="1" fill="#00F7BC"/>
  <rect x="6" y="2" width="1" height="1" fill="#7FFCDE"/>
  <rect x="7" y="2" width="2" height="1" fill="#00F7BC"/>
  <rect x="9" y="2" width="1" height="1" fill="#7FFCDE"/>
  <rect x="6" y="3" width="4" height="1" fill="#00F7BC"/>
  <rect x="3" y="4" width="10" height="1" fill="#00F7BC"/>
  <rect x="2" y="5" width="2" height="1" fill="#7FFCDE"/>
  <rect x="4" y="5" width="8" height="1" fill="#00F7BC"/>
  <rect x="12" y="5" width="2" height="1" fill="#7FFCDE"/>
  <rect x="2" y="6" width="2" height="1" fill="#00F7BC"/>
  <rect x="4" y="6" width="2" height="1" fill="#053B34"/>
  <rect x="6" y="6" width="4" height="1" fill="#00F7BC"/>
  <rect x="10" y="6" width="2" height="1" fill="#053B34"/>
  <rect x="12" y="6" width="2" height="1" fill="#00F7BC"/>
  <rect x="2" y="7" width="2" height="1" fill="#00F7BC"/>
  <rect x="4" y="7" width="2" height="1" fill="#053B34"/>
  <rect x="6" y="7" width="4" height="1" fill="#00F7BC"/>
  <rect x="10" y="7" width="2" height="1" fill="#053B34"/>
  <rect x="12" y="7" width="2" height="1" fill="#00F7BC"/>
  <rect x="2" y="8" width="12" height="1" fill="#00F7BC"/>
  <rect x="2" y="9" width="12" height="1" fill="#00F7BC"/>
  <rect x="2" y="10" width="2" height="1" fill="#00F7BC"/>
  <rect x="4" y="10" width="8" height="1" fill="#053B34"/>
  <rect x="12" y="10" width="2" height="1" fill="#00F7BC"/>
  <rect x="2" y="11" width="10" height="1" fill="#00F7BC"/>
  <rect x="12" y="11" width="2" height="1" fill="#00C49A"/>
  <rect x="3" y="12" width="1" height="1" fill="#00C49A"/>
  <rect x="4" y="12" width="8" height="1" fill="#00F7BC"/>
  <rect x="12" y="12" width="1" height="1" fill="#00C49A"/>
  <rect x="4" y="13" width="2" height="1" fill="#00F7BC"/>
  <rect x="10" y="13" width="2" height="1" fill="#00F7BC"/>
  <rect x="4" y="14" width="2" height="1" fill="#00C49A"/>
  <rect x="10" y="14" width="2" height="1" fill="#00C49A"/>
</svg>
