<svg xmlns="http://www.w3.org/2000/svg" viewBox="0 0 64 64" shape-rendering="crispEdges">
  <rect x="24" y="8" width="16" height="16" fill="#d4a37a"/>
  <rect x="22" y="4" width="20" height="6" fill="#2d3748"/>
  <rect x="20" y="8" width="4" height="6" fill="#2d3748"/>
  <rect x="40" y="8" width="4" height="6" fill="#2d3748"/>
  <rect x="27" y="15" width="4" height="3" fill="#2d3748"/>
  <rect x="33" y="15" width="4" height="3" fill="#2d3748"/>
  <rect x="29" y="21" width="6" height="2" fill="#a06040"/>
  <rect x="18" y="24" width="28" height="20" fill="#3667a6"/>
  <rect x="10" y="24" width="10" height="16" fill="#3667a6"/>
  <rect x="44" y="24" width="10" height="16" fill="#3667a6"/>
  <rect x="10" y="40" width="8" height="6" fill="#d4a37a"/>
  <rect x="46" y="40" width="8" height="6" fill="#d4a37a"/>
  <rect x="20" y="44" width="10" height="14" fill="#1e2535"/>
  <rect x="34" y="44" width="10" height="14" fill="#1e2535"/>
  <rect x="18" y="56" width="14" height="6" fill="#111"/>
  <rect x="32" y="56" width="14" height="6" fill="#111"/>
  <rect x="26" y="30" width="12" height="2" fill="#f6c90e"/>
  <rect x="26" y="34" width="8" height="2" fill="#f6c90e"/>
</svg>
