<svg xmlns="http://www.w3.org/2000/svg" viewBox="0 0 64 64" shape-rendering="crispEdges">
  <!-- business-1: Business Analyst with blazer and notebook -->
  <rect x="24" y="8" width="16" height="16" fill="#f5c5a3"/>
  <!-- hair dark bun -->
  <rect x="22" y="4" width="20" height="6" fill="#2d1b00"/>
  <rect x="24" y="2" width="16" height="6" fill="#2d1b00"/>
  <rect x="28" y="0" width="8" height="4" fill="#2d1b00"/>
  <!-- eyes -->
  <rect x="27" y="15" width="4" height="3" fill="#2c3e50"/>
  <rect x="33" y="15" width="4" height="3" fill="#2c3e50"/>
  <!-- mouth neutral -->
  <rect x="29" y="21" width="6" height="2" fill="#c4724a"/>
  <!-- blazer burgundy -->
  <rect x="18" y="24" width="28" height="20" fill="#6d2b3d"/>
  <rect x="10" y="24" width="10" height="16" fill="#6d2b3d"/>
  <rect x="44" y="24" width="10" height="16" fill="#6d2b3d"/>
  <!-- blouse white -->
  <rect x="28" y="24" width="8" height="20" fill="#f0f0f0"/>
  <!-- lapels -->
  <rect x="18" y="24" width="10" height="14" fill="#7d3349"/>
  <rect x="36" y="24" width="10" height="14" fill="#7d3349"/>
  <!-- pearl necklace -->
  <rect x="27" y="24" width="2" height="2" fill="#f0f0f0"/>
  <rect x="31" y="24" width="2" height="2" fill="#f0f0f0"/>
  <rect x="35" y="24" width="2" height="2" fill="#f0f0f0"/>
  <!-- notebook -->
  <rect x="44" y="28" width="12" height="16" fill="#f0e0a0"/>
  <rect x="45" y="29" width="10" height="14" fill="#fff8e7"/>
  <rect x="44" y="28" width="2" height="16" fill="#e74c3c"/>
  <rect x="47" y="31" width="6" height="1" fill="#8b949e"/>
  <rect x="47" y="33" width="6" height="1" fill="#8b949e"/>
  <rect x="47" y="35" width="4" height="1" fill="#8b949e"/>
  <rect x="47" y="37" width="5" height="1" fill="#8b949e"/>
  <!-- hands -->
  <rect x="10" y="40" width="8" height="6" fill="#f5c5a3"/>
  <rect x="46" y="40" width="8" height="6" fill="#f5c5a3"/>
  <!-- skirt dark -->
  <rect x="18" y="44" width="28" height="14" fill="#4a1528"/>
  <!-- shoes heels -->
  <rect x="20" y="56" width="10" height="4" fill="#6d2b3d"/>
  <rect x="34" y="56" width="10" height="4" fill="#6d2b3d"/>
  <rect x="26" y="58" width="4" height="4" fill="#6d2b3d"/>
  <rect x="40" y="58" width="4" height="4" fill="#6d2b3d"/>
</svg>
