<svg xmlns="http://www.w3.org/2000/svg" viewBox="0 0 64 64" shape-rendering="crispEdges">
  <!-- dba-1: DBA with database icon on shirt -->
  <rect x="24" y="8" width="16" height="16" fill="#daa06c"/>
  <!-- hair brown -->
  <rect x="22" y="5" width="20" height="7" fill="#5d3a1a"/>
  <rect x="20" y="8" width="4" height="8" fill="#5d3a1a"/>
  <rect x="40" y="8" width="4" height="8" fill="#5d3a1a"/>
  <!-- beard -->
  <rect x="24" y="20" width="16" height="4" fill="#5d3a1a"/>
  <!-- eyes -->
  <rect x="27" y="14" width="4" height="3" fill="#2c3e50"/>
  <rect x="33" y="14" width="4" height="3" fill="#2c3e50"/>
  <!-- shirt teal -->
  <rect x="18" y="24" width="28" height="20" fill="#16a085"/>
  <rect x="10" y="24" width="10" height="16" fill="#16a085"/>
  <rect x="44" y="24" width="10" height="16" fill="#16a085"/>
  <!-- DB cylinder icon -->
  <rect x="26" y="28" width="12" height="2" fill="#1abc9c"/>
  <rect x="24" y="30" width="16" height="8" fill="#0e7a66"/>
  <rect x="26" y="38" width="12" height="2" fill="#1abc9c"/>
  <rect x="24" y="32" width="16" height="2" fill="#1abc9c"/>
  <rect x="24" y="35" width="16" height="2" fill="#1abc9c"/>
  <!-- hands -->
  <rect x="10" y="40" width="8" height="6" fill="#daa06c"/>
  <rect x="46" y="40" width="8" height="6" fill="#daa06c"/>
  <!-- pants -->
  <rect x="20" y="44" width="10" height="14" fill="#2c3e50"/>
  <rect x="34" y="44" width="10" height="14" fill="#2c3e50"/>
  <!-- shoes -->
  <rect x="18" y="56" width="14" height="6" fill="#111"/>
  <rect x="32" y="56" width="14" height="6" fill="#111"/>
</svg>
