<svg xmlns="http://www.w3.org/2000/svg" viewBox="0 0 64 64" shape-rendering="crispEdges">
  <rect x="24" y="10" width="16" height="14" fill="#e8c49a"/>
  <rect x="20" y="6" width="24" height="8" fill="#e53e3e"/>
  <rect x="18" y="10" width="6" height="4" fill="#e53e3e"/>
  <rect x="38" y="10" width="8" height="4" fill="#e53e3e"/>
  <rect x="27" y="16" width="4" height="3" fill="#1a1a2e"/>
  <rect x="33" y="16" width="4" height="3" fill="#1a1a2e"/>
  <rect x="29" y="21" width="6" height="2" fill="#b5714a"/>
  <rect x="18" y="24" width="28" height="20" fill="#4a5568"/>
  <rect x="10" y="24" width="10" height="16" fill="#4a5568"/>
  <rect x="44" y="24" width="10" height="16" fill="#4a5568"/>
  <rect x="10" y="40" width="8" height="6" fill="#e8c49a"/>
  <rect x="46" y="40" width="8" height="6" fill="#e8c49a"/>
  <rect x="20" y="44" width="10" height="14" fill="#2d3748"/>
  <rect x="34" y="44" width="10" height="14" fill="#2d3748"/>
  <rect x="18" y="56" width="14" height="6" fill="#1a202c"/>
  <rect x="32" y="56" width="14" height="6" fill="#1a202c"/>
</svg>
