<svg xmlns="http://www.w3.org/2000/svg" viewBox="0 0 64 64" shape-rendering="crispEdges">
  <!-- dev-3: Developer with cap (girl) -->
  <rect x="24" y="10" width="16" height="16" fill="#f5c5a3"/>
  <!-- cap purple -->
  <rect x="18" y="4" width="28" height="8" fill="#a371f7"/>
  <rect x="14" y="8" width="36" height="4" fill="#8957e5"/>
  <rect x="40" y="4" width="6" height="4" fill="#a371f7"/>
  <!-- long hair purple-black sides -->
  <rect x="20" y="8" width="4" height="20" fill="#2d0f5e"/>
  <rect x="40" y="8" width="4" height="20" fill="#2d0f5e"/>
  <!-- eyes large kawaii -->
  <rect x="26" y="16" width="5" height="5" fill="#6b21a8"/>
  <rect x="33" y="16" width="5" height="5" fill="#6b21a8"/>
  <rect x="27" y="17" width="2" height="2" fill="#fff"/>
  <rect x="34" y="17" width="2" height="2" fill="#fff"/>
  <!-- blush -->
  <rect x="24" y="21" width="4" height="2" fill="#ffb3c1" opacity="0.7"/>
  <rect x="36" y="21" width="4" height="2" fill="#ffb3c1" opacity="0.7"/>
  <!-- small mouth -->
  <rect x="30" y="23" width="4" height="2" fill="#c4724a"/>
  <!-- hoodie pastel pink -->
  <rect x="18" y="26" width="28" height="18" fill="#ffb3c1"/>
  <rect x="10" y="26" width="10" height="14" fill="#ffb3c1"/>
  <rect x="44" y="26" width="10" height="14" fill="#ffb3c1"/>
  <!-- kangaroo pocket -->
  <rect x="26" y="34" width="12" height="8" fill="#ff8fa3"/>
  <!-- hands -->
  <rect x="10" y="40" width="8" height="6" fill="#f5c5a3"/>
  <rect x="46" y="40" width="8" height="6" fill="#f5c5a3"/>
  <!-- jeans light -->
  <rect x="20" y="44" width="10" height="14" fill="#5b92d4"/>
  <rect x="34" y="44" width="10" height="14" fill="#5b92d4"/>
  <!-- sneakers white with pink -->
  <rect x="18" y="56" width="14" height="6" fill="#f0f0f0"/>
  <rect x="32" y="56" width="14" height="6" fill="#f0f0f0"/>
  <rect x="18" y="58" width="14" height="2" fill="#ff8fa3"/>
  <rect x="32" y="58" width="14" height="2" fill="#ff8fa3"/>
</svg>
