<svg xmlns="http://www.w3.org/2000/svg" viewBox="0 0 64 64" shape-rendering="crispEdges">
  <rect x="0" y="0" width="64" height="64" fill="#0d1117"/>
  <rect x="24" y="8" width="16" height="16" fill="#c0c0c0"/>
  <rect x="22" y="4" width="20" height="8" fill="#111"/>
  <rect x="20" y="8" width="4" height="8" fill="#111"/>
  <rect x="40" y="8" width="4" height="8" fill="#111"/>
  <rect x="27" y="15" width="4" height="3" fill="#00ff41"/>
  <rect x="33" y="15" width="4" height="3" fill="#00ff41"/>
  <rect x="29" y="21" width="6" height="2" fill="#888"/>
  <rect x="18" y="24" width="28" height="20" fill="#1a1a1a"/>
  <rect x="10" y="24" width="10" height="16" fill="#1a1a1a"/>
  <rect x="44" y="24" width="10" height="16" fill="#1a1a1a"/>
  <rect x="10" y="40" width="8" height="6" fill="#c0c0c0"/>
  <rect x="46" y="40" width="8" height="6" fill="#c0c0c0"/>
  <rect x="20" y="44" width="10" height="14" fill="#0d1117"/>
  <rect x="34" y="44" width="10" height="14" fill="#0d1117"/>
  <rect x="18" y="56" width="14" height="6" fill="#050a0f"/>
  <rect x="32" y="56" width="14" height="6" fill="#050a0f"/>
  <rect x="22" y="28" width="20" height="12" fill="#001800"/>
  <rect x="23" y="29" width="2" height="2" fill="#00ff41"/>
  <rect x="27" y="29" width="4" height="2" fill="#00ff41"/>
  <rect x="23" y="33" width="6" height="2" fill="#00ff41"/>
  <rect x="23" y="36" width="1" height="3" fill="#00ff41"/>
</svg>
